<?xml version="1.0" encoding="iso-8859-1"?>
<!-- Generator: Adobe Illustrator 19.1.0, SVG Export Plug-In . SVG Version: 6.00 Build 0)  -->
<svg version="1.1" id="Capa_1" xmlns="http://www.w3.org/2000/svg" xmlns:xlink="http://www.w3.org/1999/xlink" x="0px" y="0px"
	 viewBox="0 0 479.624 479.624" style="enable-background:new 0 0 479.624 479.624;" xml:space="preserve">
<g>
	<path id="XMLID_2096_" d="M260.836,0c-28,0-54.5,6.3-78.3,17.5c-62.6,29-105.9,92.4-105.9,165.9l0,0v24.5v5.9l-37.3,71.3
		c-9.4,18-0.5,32.7,19.8,32.7h17.5v0.4v31.1v36.3c0,21.2,17.3,38.5,38.5,38.5l52.9-7.9l0.1,52.8v0.4l0,0c0.3,6.8,6,11.3,13,10
		l190.4-33.7c7.2-1.3,13.1-8.3,13.1-15.6v-8.2v-6.7v-96.9c36.5-33.5,59.4-81.6,59.4-135C443.936,82.1,361.936,0,260.836,0z
		 M206.436,91c-33.2,19.2-53.8,54.9-53.8,93.2c0,10.9-8.8,19.7-19.7,19.7s-19.7-8.8-19.7-19.7c0.1-52.3,28.2-101.1,73.5-127.3
		c9.4-5.4,21.4-2.2,26.9,7.2S215.836,85.6,206.436,91z M260.236,76.6c-10.9,0-19.7-8.8-19.7-19.7s8.8-19.7,19.7-19.7l0,0
		c10.9,0,19.7,8.8,19.7,19.7S271.136,76.6,260.236,76.6z"/>
</g>
<g>
</g>
<g>
</g>
<g>
</g>
<g>
</g>
<g>
</g>
<g>
</g>
<g>
</g>
<g>
</g>
<g>
</g>
<g>
</g>
<g>
</g>
<g>
</g>
<g>
</g>
<g>
</g>
<g>
</g>
</svg>
