<?xml version="1.0" encoding="iso-8859-1"?>
<!-- Generator: Adobe Illustrator 17.1.0, SVG Export Plug-In . SVG Version: 6.00 Build 0)  -->
<!DOCTYPE svg PUBLIC "-//W3C//DTD SVG 1.1//EN" "http://www.w3.org/Graphics/SVG/1.1/DTD/svg11.dtd">
<svg version="1.1" id="Capa_1" xmlns="http://www.w3.org/2000/svg" xmlns:xlink="http://www.w3.org/1999/xlink" x="0px" y="0px"
	 viewBox="0 0 84.285 84.285" style="enable-background:new 0 0 84.285 84.285;" xml:space="preserve">
<g>
	<path d="M76.839,12.044l-1.279-1.851c-0.555-0.802-1.468-1.281-2.443-1.281c-0.622,0-1.218,0.192-1.726,0.555L50.75,24.233
		c-0.064-0.004-0.125-0.019-0.191-0.019H33.728c-0.066,0-0.127,0.015-0.192,0.019L12.894,9.467
		c-0.507-0.363-1.104-0.555-1.726-0.555c-0.976,0-1.889,0.479-2.443,1.281l-1.28,1.851c-0.935,1.354-0.608,3.233,0.73,4.191
		l22.553,16.133v21.184l-7.202,1.069c-1.915,0.284-3.432,2.023-3.453,3.96l-0.237,22.094c-0.01,0.96,0.356,1.866,1.033,2.55
		c0.677,0.684,1.578,1.061,2.539,1.061h2.41c1.985,0,3.6-1.615,3.6-3.6V66.417c0-0.949,0.815-1.944,1.746-2.131l10.979-2.202
		l10.979,2.202c0.93,0.187,1.746,1.182,1.746,2.131v14.268c0,1.985,1.615,3.6,3.6,3.6h2.409c0.961,0,1.863-0.377,2.54-1.061
		c0.676-0.684,1.043-1.589,1.033-2.549l-0.237-22.094c-0.021-1.936-1.538-3.675-3.453-3.96l-7.201-1.069V32.366L76.11,16.234
		C77.448,15.277,77.775,13.397,76.839,12.044z"/>
	<path d="M42.143,21.672c5.975,0,10.835-4.861,10.835-10.836S48.117,0,42.143,0c-5.975,0-10.836,4.861-10.836,10.836
		S36.168,21.672,42.143,21.672z"/>
</g>
<g>
</g>
<g>
</g>
<g>
</g>
<g>
</g>
<g>
</g>
<g>
</g>
<g>
</g>
<g>
</g>
<g>
</g>
<g>
</g>
<g>
</g>
<g>
</g>
<g>
</g>
<g>
</g>
<g>
</g>
</svg>
