<?xml version="1.0" encoding="UTF-8"?>
<svg width="700pt" height="700pt" version="1.1" viewBox="0 0 700 700" xmlns="http://www.w3.org/2000/svg" xmlns:xlink="http://www.w3.org/1999/xlink">
 <defs>
  <symbol id="w" overflow="visible">
   <path d="m3.4219-0.20312c-0.17969 0.09375-0.36719 0.16406-0.5625 0.20312-0.1875 0.050781-0.38672 0.078125-0.59375 0.078125-0.61719 0-1.1055-0.17188-1.4688-0.51562-0.36719-0.35156-0.54688-0.82812-0.54688-1.4219s0.17969-1.0625 0.54688-1.4062c0.36328-0.35156 0.85156-0.53125 1.4688-0.53125 0.20703 0 0.40625 0.027344 0.59375 0.078125 0.19531 0.042969 0.38281 0.10938 0.5625 0.20312v0.76562c-0.17969-0.11328-0.35547-0.19531-0.53125-0.25-0.16797-0.0625-0.35156-0.09375-0.54688-0.09375-0.33594 0-0.60156 0.10938-0.79688 0.32812-0.19922 0.21875-0.29688 0.52344-0.29688 0.90625 0 0.38672 0.097656 0.6875 0.29688 0.90625 0.19531 0.21875 0.46094 0.32812 0.79688 0.32812 0.19531 0 0.37891-0.023438 0.54688-0.078125 0.17578-0.0625 0.35156-0.14844 0.53125-0.26562z"/>
  </symbol>
  <symbol id="d" overflow="visible">
   <path d="m2.5-2.0312c-0.074219-0.039062-0.15234-0.066406-0.23438-0.078125-0.074219-0.019531-0.15234-0.03125-0.23438-0.03125-0.23047 0-0.40625 0.074219-0.53125 0.21875-0.11719 0.14844-0.17188 0.35938-0.17188 0.64062v1.2812h-0.90625v-2.7969h0.90625v0.46875c0.11328-0.1875 0.24219-0.32031 0.39062-0.40625 0.14453-0.082031 0.32031-0.125 0.53125-0.125h0.09375c0.039062 0 0.09375 0.007813 0.15625 0.015625z"/>
  </symbol>
  <symbol id="a" overflow="visible">
   <path d="m3.2188-1.4062v0.25h-2.0938c0.019531 0.21875 0.09375 0.38281 0.21875 0.48438 0.13281 0.10547 0.32031 0.15625 0.5625 0.15625 0.1875 0 0.37891-0.023437 0.57812-0.078125 0.19531-0.0625 0.39844-0.14844 0.60938-0.26562v0.6875c-0.21875 0.085938-0.43359 0.14844-0.64062 0.1875-0.21094 0.039062-0.42188 0.0625-0.64062 0.0625-0.5 0-0.89062-0.12891-1.1719-0.39062-0.28125-0.25781-0.42188-0.61719-0.42188-1.0781 0-0.45703 0.13281-0.81641 0.40625-1.0781 0.28125-0.25781 0.66016-0.39062 1.1406-0.39062 0.4375 0 0.78516 0.13672 1.0469 0.40625 0.26953 0.26172 0.40625 0.60938 0.40625 1.0469zm-0.92188-0.29688c0-0.16406-0.054687-0.30078-0.15625-0.40625-0.09375-0.10156-0.21875-0.15625-0.375-0.15625-0.17969 0-0.32031 0.054687-0.42188 0.15625-0.10547 0.09375-0.17188 0.23047-0.20312 0.40625z"/>
  </symbol>
  <symbol id="j" overflow="visible">
   <path d="m1.6875-1.25c-0.1875 0-0.32812 0.03125-0.42188 0.09375s-0.14062 0.15234-0.14062 0.26562c0 0.11719 0.035156 0.21094 0.10938 0.28125 0.070313 0.0625 0.17578 0.09375 0.3125 0.09375 0.16406 0 0.30469-0.0625 0.42188-0.1875 0.11328-0.125 0.17188-0.27344 0.17188-0.45312v-0.09375zm1.3594-0.34375v1.5938h-0.90625v-0.42188c-0.11719 0.17969-0.25 0.30859-0.40625 0.39062-0.14844 0.070312-0.32812 0.10938-0.54688 0.10938-0.28125 0-0.51562-0.082031-0.70312-0.25-0.17969-0.17578-0.26562-0.39844-0.26562-0.67188 0-0.32031 0.10938-0.55469 0.32812-0.70312 0.22656-0.15625 0.58594-0.23438 1.0781-0.23438h0.51562v-0.078125c0-0.14453-0.058594-0.25-0.17188-0.3125-0.10547-0.0625-0.27734-0.09375-0.51562-0.09375-0.1875 0-0.36719 0.023437-0.53125 0.0625-0.16797 0.03125-0.32031 0.089844-0.45312 0.17188v-0.6875c0.1875-0.050781 0.375-0.085938 0.5625-0.10938 0.19531-0.019531 0.39453-0.03125 0.59375-0.03125 0.5 0 0.85938 0.10156 1.0781 0.29688 0.22656 0.19922 0.34375 0.52344 0.34375 0.96875z"/>
  </symbol>
  <symbol id="c" overflow="visible">
   <path d="m1.4062-3.5938v0.79688h0.92188v0.64062h-0.92188v1.1875c0 0.125 0.023438 0.21484 0.078125 0.26562 0.050781 0.042969 0.14844 0.0625 0.29688 0.0625h0.46875v0.64062h-0.76562c-0.35547 0-0.60547-0.070312-0.75-0.21875-0.14844-0.14453-0.21875-0.39453-0.21875-0.75v-1.1875h-0.45312v-0.64062h0.45312v-0.79688z"/>
  </symbol>
  <symbol id="i" overflow="visible">
   <path d="m2.3281-2.3906v-1.4844h0.90625v3.875h-0.90625v-0.40625c-0.125 0.16797-0.26172 0.29297-0.40625 0.375-0.14844 0.070312-0.32031 0.10938-0.51562 0.10938-0.34375 0-0.625-0.13281-0.84375-0.40625-0.21875-0.28125-0.32812-0.63281-0.32812-1.0625 0-0.4375 0.10938-0.78906 0.32812-1.0625 0.21875-0.26953 0.5-0.40625 0.84375-0.40625 0.19531 0 0.36719 0.042969 0.51562 0.125 0.14453 0.074219 0.28125 0.1875 0.40625 0.34375zm-0.59375 1.8125c0.19531 0 0.34375-0.066406 0.4375-0.20312 0.10156-0.14453 0.15625-0.34766 0.15625-0.60938 0-0.26953-0.054687-0.47266-0.15625-0.60938-0.09375-0.14453-0.24219-0.21875-0.4375-0.21875-0.1875 0-0.33594 0.074219-0.4375 0.21875-0.09375 0.13672-0.14062 0.33984-0.14062 0.60938 0 0.26172 0.046875 0.46484 0.14062 0.60938 0.10156 0.13672 0.25 0.20312 0.4375 0.20312z"/>
  </symbol>
  <symbol id="h" overflow="visible">
   <path d="m1.9219-0.57812c0.1875 0 0.32812-0.066406 0.42188-0.20312 0.10156-0.14453 0.15625-0.34766 0.15625-0.60938 0-0.26953-0.054688-0.47266-0.15625-0.60938-0.09375-0.14453-0.23438-0.21875-0.42188-0.21875-0.19922 0-0.35156 0.074219-0.45312 0.21875-0.09375 0.13672-0.14062 0.33984-0.14062 0.60938 0 0.26172 0.046875 0.46484 0.14062 0.60938 0.10156 0.13672 0.25391 0.20312 0.45312 0.20312zm-0.59375-1.8125c0.11328-0.15625 0.24219-0.26953 0.39062-0.34375 0.15625-0.082031 0.33203-0.125 0.53125-0.125 0.34375 0 0.625 0.13672 0.84375 0.40625 0.21875 0.27344 0.32812 0.625 0.32812 1.0625 0 0.42969-0.10938 0.78125-0.32812 1.0625-0.21875 0.27344-0.5 0.40625-0.84375 0.40625-0.19922 0-0.375-0.039062-0.53125-0.10938-0.14844-0.082031-0.27734-0.20703-0.39062-0.375v0.40625h-0.90625v-3.875h0.90625z"/>
  </symbol>
  <symbol id="g" overflow="visible">
   <path d="m0.0625-2.7969h0.89062l0.75 1.9062 0.64062-1.9062h0.89062l-1.1719 3.0625c-0.11719 0.3125-0.25 0.53125-0.40625 0.65625s-0.36719 0.1875-0.625 0.1875h-0.51562v-0.59375h0.28125c0.14453 0 0.25-0.027344 0.3125-0.078125 0.070313-0.042969 0.12891-0.125 0.17188-0.25l0.03125-0.078125z"/>
  </symbol>
  <symbol id="f" overflow="visible">
   <path d="m0.46875-3.7188h0.95312v1.4062h1.4219v-1.4062h0.96875v3.7188h-0.96875v-1.5781h-1.4219v1.5781h-0.95312z"/>
  </symbol>
  <symbol id="b" overflow="visible">
   <path d="m1.7656-2.2188c-0.19922 0-0.35156 0.074219-0.45312 0.21875-0.10547 0.13672-0.15625 0.33984-0.15625 0.60938 0 0.26172 0.050781 0.46484 0.15625 0.60938 0.10156 0.14844 0.25391 0.21875 0.45312 0.21875 0.1875 0 0.33203-0.070312 0.4375-0.21875 0.10156-0.14453 0.15625-0.34766 0.15625-0.60938 0-0.26953-0.054687-0.47266-0.15625-0.60938-0.10547-0.14453-0.25-0.21875-0.4375-0.21875zm0-0.64062c0.47656 0 0.85156 0.13281 1.125 0.39062 0.26953 0.26172 0.40625 0.62109 0.40625 1.0781 0 0.46094-0.13672 0.82031-0.40625 1.0781-0.27344 0.26172-0.64844 0.39062-1.125 0.39062-0.49219 0-0.87109-0.12891-1.1406-0.39062-0.27344-0.25781-0.40625-0.61719-0.40625-1.0781 0-0.45703 0.13281-0.81641 0.40625-1.0781 0.26953-0.25781 0.64844-0.39062 1.1406-0.39062z"/>
  </symbol>
  <symbol id="v" overflow="visible">
   <path d="m1.3281-0.40625v1.4688h-0.90625v-3.8594h0.90625v0.40625c0.11328-0.15625 0.24219-0.26953 0.39062-0.34375 0.15625-0.082031 0.33203-0.125 0.53125-0.125 0.34375 0 0.625 0.13672 0.84375 0.40625 0.21875 0.27344 0.32812 0.625 0.32812 1.0625 0 0.42969-0.10938 0.78125-0.32812 1.0625-0.21875 0.27344-0.5 0.40625-0.84375 0.40625-0.19922 0-0.375-0.039062-0.53125-0.10938-0.14844-0.082031-0.27734-0.20703-0.39062-0.375zm0.59375-1.8125c-0.19922 0-0.35156 0.074219-0.45312 0.21875-0.09375 0.13672-0.14062 0.33984-0.14062 0.60938 0 0.26172 0.046875 0.46484 0.14062 0.60938 0.10156 0.13672 0.25391 0.20312 0.45312 0.20312 0.1875 0 0.32812-0.066406 0.42188-0.20312 0.10156-0.14453 0.15625-0.34766 0.15625-0.60938 0-0.26953-0.054688-0.47266-0.15625-0.60938-0.09375-0.14453-0.23438-0.21875-0.42188-0.21875z"/>
  </symbol>
  <symbol id="u" overflow="visible">
   <path d="m0.42188-3.875h0.90625v2.1094l1.0156-1.0312h1.0469l-1.375 1.2812 1.4844 1.5156h-1.0938l-1.0781-1.1719v1.1719h-0.90625z"/>
  </symbol>
  <symbol id="t" overflow="visible">
   <path d="m0.42188-2.7969h0.90625v2.7969h-0.90625zm0-1.0781h0.90625v0.71875h-0.90625z"/>
  </symbol>
  <symbol id="e" overflow="visible">
   <path d="m3.2344-1.7031v1.7031h-0.89062v-1.2969c0-0.23828-0.007812-0.40625-0.015625-0.5-0.011719-0.09375-0.03125-0.16016-0.0625-0.20312-0.03125-0.0625-0.078125-0.10938-0.14062-0.14062s-0.13281-0.046875-0.20312-0.046875c-0.1875 0-0.33594 0.074219-0.4375 0.21875-0.10547 0.14844-0.15625 0.34375-0.15625 0.59375v1.375h-0.90625v-2.7969h0.90625v0.40625c0.13281-0.15625 0.27344-0.26953 0.42188-0.34375 0.15625-0.082031 0.32031-0.125 0.5-0.125 0.32031 0 0.56641 0.10156 0.73438 0.29688 0.16406 0.19922 0.25 0.48438 0.25 0.85938z"/>
  </symbol>
  <symbol id="s" overflow="visible">
   <path d="m2.6094-2.7031v0.67188c-0.1875-0.070312-0.37109-0.12891-0.54688-0.17188-0.17969-0.039063-0.35156-0.0625-0.51562-0.0625-0.16797 0-0.29297 0.023437-0.375 0.0625-0.085937 0.042969-0.125 0.10547-0.125 0.1875 0 0.074219 0.03125 0.13281 0.09375 0.17188 0.0625 0.042969 0.17578 0.070312 0.34375 0.078125l0.15625 0.03125c0.45703 0.054687 0.76562 0.14844 0.92188 0.28125 0.15625 0.13672 0.23438 0.34375 0.23438 0.625 0 0.30469-0.10938 0.53125-0.32812 0.6875-0.21875 0.14453-0.54688 0.21875-0.98438 0.21875-0.1875 0-0.38281-0.015625-0.57812-0.046875-0.1875-0.03125-0.38672-0.078125-0.59375-0.14062v-0.67188c0.17578 0.085938 0.35938 0.15234 0.54688 0.20312 0.1875 0.042969 0.375 0.0625 0.5625 0.0625 0.17578 0 0.30469-0.023437 0.39062-0.078125 0.09375-0.050781 0.14062-0.125 0.14062-0.21875 0-0.070312-0.03125-0.12891-0.09375-0.17188-0.0625-0.039063-0.18359-0.070313-0.35938-0.09375l-0.15625-0.015625c-0.39844-0.050781-0.67969-0.14453-0.84375-0.28125-0.15625-0.13281-0.23438-0.33594-0.23438-0.60938 0-0.30078 0.097656-0.51953 0.29688-0.65625 0.20703-0.14453 0.51953-0.21875 0.9375-0.21875 0.16406 0 0.33594 0.015625 0.51562 0.046875 0.1875 0.023438 0.38281 0.058594 0.59375 0.10938z"/>
  </symbol>
  <symbol id="r" overflow="visible">
   <path d="m2.2656-3.875v0.57812h-0.48438c-0.13672 0-0.23047 0.027344-0.28125 0.078125-0.042969 0.042969-0.0625 0.12109-0.0625 0.23438v0.1875h0.76562v0.64062h-0.76562v2.1562h-0.89062v-2.1562h-0.45312v-0.64062h0.45312v-0.1875c0-0.3125 0.082031-0.53516 0.25-0.67188 0.16406-0.14453 0.42578-0.21875 0.78125-0.21875z"/>
  </symbol>
  <symbol id="q" overflow="visible">
   <path d="m3.0156-2.3281c0.11328-0.17578 0.25-0.30469 0.40625-0.39062 0.15625-0.09375 0.32812-0.14062 0.51562-0.14062 0.32031 0 0.56641 0.10156 0.73438 0.29688 0.16406 0.19922 0.25 0.48438 0.25 0.85938v1.7031h-0.90625v-1.4531c0.007813-0.019531 0.015625-0.039063 0.015625-0.0625v-0.10938c0-0.19531-0.03125-0.33594-0.09375-0.42188-0.054688-0.09375-0.14844-0.14062-0.28125-0.14062-0.16797 0-0.29688 0.074219-0.39062 0.21875-0.09375 0.13672-0.14062 0.33594-0.14062 0.59375v1.375h-0.90625v-1.4531c0-0.3125-0.027344-0.50781-0.078125-0.59375-0.054687-0.09375-0.14844-0.14062-0.28125-0.14062-0.16797 0-0.29688 0.074219-0.39062 0.21875-0.09375 0.13672-0.14062 0.33594-0.14062 0.59375v1.375h-0.90625v-2.7969h0.90625v0.40625c0.10156-0.15625 0.22266-0.26953 0.35938-0.34375 0.14453-0.082031 0.30469-0.125 0.48438-0.125 0.1875 0 0.35156 0.046875 0.5 0.14062 0.15625 0.09375 0.26953 0.22656 0.34375 0.39062z"/>
  </symbol>
  <symbol id="p" overflow="visible">
   <path d="m3.2344-1.7031v1.7031h-0.89062v-1.2969c0-0.23828-0.007812-0.40625-0.015625-0.5-0.011719-0.09375-0.03125-0.16016-0.0625-0.20312-0.03125-0.0625-0.078125-0.10938-0.14062-0.14062s-0.13281-0.046875-0.20312-0.046875c-0.1875 0-0.33594 0.074219-0.4375 0.21875-0.10547 0.14844-0.15625 0.34375-0.15625 0.59375v1.375h-0.90625v-3.875h0.90625v1.4844c0.13281-0.15625 0.27344-0.26953 0.42188-0.34375 0.15625-0.082031 0.32031-0.125 0.5-0.125 0.32031 0 0.56641 0.10156 0.73438 0.29688 0.16406 0.19922 0.25 0.48438 0.25 0.85938z"/>
  </symbol>
  <symbol id="o" overflow="visible">
   <path d="m0.46875-3.7188h1.0781l1.3438 2.5469v-2.5469h0.92188v3.7188h-1.0781l-1.3594-2.5625v2.5625h-0.90625z"/>
  </symbol>
  <symbol id="n" overflow="visible">
   <path d="m0.40625-1.0938v-1.7031h0.89062v0.28125 0.57812 0.45312c0 0.21875 0.003906 0.38281 0.015625 0.48438 0.007812 0.09375 0.03125 0.16797 0.0625 0.21875 0.03125 0.054688 0.078125 0.09375 0.14062 0.125s0.12891 0.046875 0.20312 0.046875c0.1875 0 0.33203-0.066406 0.4375-0.20312 0.10156-0.14453 0.15625-0.34766 0.15625-0.60938v-1.375h0.89062v2.7969h-0.89062v-0.40625c-0.13672 0.16797-0.28125 0.29297-0.4375 0.375-0.14844 0.070312-0.30859 0.10938-0.48438 0.10938-0.32422 0-0.57031-0.097656-0.73438-0.29688-0.16797-0.19531-0.25-0.48828-0.25-0.875z"/>
  </symbol>
  <symbol id="m" overflow="visible">
   <path d="m0.46875-3.7188h1.5938c0.47656 0 0.84375 0.10547 1.0938 0.3125 0.25 0.21094 0.375 0.50781 0.375 0.89062 0 0.39844-0.125 0.69922-0.375 0.90625-0.25 0.21094-0.61719 0.3125-1.0938 0.3125h-0.64062v1.2969h-0.95312zm0.95312 0.6875v1.0469h0.53125c0.1875 0 0.33203-0.046875 0.4375-0.14062 0.10156-0.09375 0.15625-0.22266 0.15625-0.39062 0-0.16406-0.054687-0.28906-0.15625-0.375-0.10547-0.09375-0.25-0.14062-0.4375-0.14062z"/>
  </symbol>
  <symbol id="l" overflow="visible">
   <path d="m0.42188-2.7969h0.90625v2.75c0 0.375-0.09375 0.66016-0.28125 0.85938-0.17969 0.19531-0.4375 0.29688-0.78125 0.29688h-0.4375v-0.59375h0.15625c0.16406 0 0.28125-0.042969 0.34375-0.125 0.0625-0.074219 0.09375-0.21875 0.09375-0.4375zm0-1.0781h0.90625v0.71875h-0.90625z"/>
  </symbol>
  <symbol id="k" overflow="visible">
   <path d="m2.6875-2.7031v0.71875c-0.125-0.082031-0.25-0.14062-0.375-0.17188-0.11719-0.039062-0.24219-0.0625-0.375-0.0625-0.25 0-0.44531 0.074219-0.57812 0.21875-0.13672 0.14844-0.20312 0.35156-0.20312 0.60938 0 0.26172 0.066406 0.46484 0.20312 0.60938 0.13281 0.14844 0.32812 0.21875 0.57812 0.21875 0.14453 0 0.28125-0.019531 0.40625-0.0625 0.125-0.039062 0.23828-0.10156 0.34375-0.1875v0.73438c-0.13672 0.054688-0.27734 0.085938-0.42188 0.10938-0.14844 0.03125-0.29297 0.046875-0.4375 0.046875-0.5 0-0.89844-0.12891-1.1875-0.39062-0.28125-0.25781-0.42188-0.61719-0.42188-1.0781 0-0.45703 0.14062-0.81641 0.42188-1.0781 0.28906-0.25781 0.6875-0.39062 1.1875-0.39062 0.14453 0 0.28516 0.015625 0.42188 0.046875 0.14453 0.023438 0.28906 0.058594 0.4375 0.10938z"/>
  </symbol>
 </defs>
 <g>
  <path d="m535.42 28.977c-11.582-1.4531-23.348 3.3711-30.34 13.496l-78.016 112.94-136.84 46.066-84.207-40.125 6.0703 33.684c1.582 8.3672-0.25781 17.055-5.0781 23.777-4.8203 7.1016-12.254 11.914-20.559 13.5-1.9648 0.38281-3.918 0.74219-5.8203 0.74219-6.4648 0-12.875-2.2695-18.328-5.8203-7.0352-5.1328-11.984-12.242-13.25-20.926l-11.516-63.898h-5.8203l-14.859 31.082c-15.027 31.383-1.7305 69.121 29.723 84.086l120.86 57.707c7.6719 3.8672 16.023 5.4492 24.395 5.4492 9.0664 0 18.254-2.1836 26.625-6.6875l146-69.223c9.957-4.5 13.875-16.684 8.4219-26.004l-5.1992-9.0391 43.965-63.652c-2.2852 5.707-3.5938 11.863-3.5938 18.328 0 27.516 22.328 49.781 49.781 49.781 3.2344 0 6.3672-0.35547 9.4102-0.98828l-451.01 198.76c-8.1133 3.6133-11.785 13.059-8.1719 21.176 2.6641 6.0195 8.4609 9.5352 14.609 9.5352 2.0938 0 4.4102-0.35156 6.5625-1.2383l79.504-35.047v136.34h64.27v-164.7l261.91-115.29v279.99h64.27v-308.35l91.391-40.246c7.9883-3.3594 11.602-13 8.0508-21.051-3.6133-8.1172-12.996-11.785-21.176-8.1719l-90.523 39.875c12.363-9.0664 20.559-23.633 20.559-40.246 0-12.68-4.8945-24.125-12.758-32.941l36.652 19.812c15.664 8.4336 35.16 2.6602 43.594-13 8.4297-15.535 2.5938-35.16-13.004-43.59l-115.17-62.301c-3.6172-1.9336-7.5352-3.1055-11.395-3.5898zm-477.01 11.391c-16.352 1.5156-32.18 9.2734-43.59 23.035-22.57 27.199-19.031 67.633 8.4219 90.523 27.262 22.57 67.703 18.656 90.273-8.543 1.1406-1.2695 2.2109-2.5664 2.9727-3.9609l-55.852-2.1055c-7.1016-0.070312-13.863-2.6836-19.316-7.1836-7.9258-6.5938-12.145-15.922-11.766-26.004 0.57031-8.75 4.1914-16.703 10.281-22.539 6.5273-5.832 14.715-8.6719 23.402-8.543l59.316 2.5977c-3.7422-8.6211-9.3555-16.32-17.09-22.66-13.727-11.379-30.707-16.125-47.055-14.613zm4.582 42.848c-13.441-0.63281-24.691 9.7188-25.262 23.035-0.31641 7.7969 3.0898 14.875 8.668 19.566 3.9961 3.2969 8.9727 5.3828 14.488 5.5742l83.219 3.4648 12.754 70.215c2.3438 13.125 14.926 21.914 27.988 19.566 13.125-2.4062 21.852-15.047 19.441-28.109l-16.223-89.285c-1.9648-11.16-11.5-19.371-22.785-19.816zm478.5 19.691 23.531 12.629c-2.4102-0.37891-4.832-0.74219-7.3047-0.74219-13.062 0-24.742 5.1953-33.684 13.375l17.461-25.262z"/>
  <use y="558.089844" xlink:href="#w"/>
  <use x="3.75" y="558.089844" xlink:href="#d"/>
  <use x="6.269531" y="558.089844" xlink:href="#a"/>
  <use x="9.730469" y="558.089844" xlink:href="#j"/>
  <use x="13.179688" y="558.089844" xlink:href="#c"/>
  <use x="15.621094" y="558.089844" xlink:href="#a"/>
  <use x="19.085938" y="558.089844" xlink:href="#i"/>
  <use x="24.519531" y="558.089844" xlink:href="#h"/>
  <use x="28.175781" y="558.089844" xlink:href="#g"/>
  <use x="33.285156" y="558.089844" xlink:href="#f"/>
  <use x="37.558594" y="558.089844" xlink:href="#b"/>
  <use x="41.070312" y="558.089844" xlink:href="#v"/>
  <use x="44.726562" y="558.089844" xlink:href="#u"/>
  <use x="48.121094" y="558.089844" xlink:href="#t"/>
  <use x="49.875" y="558.089844" xlink:href="#e"/>
  <use x="53.511719" y="558.089844" xlink:href="#s"/>
  <use y="563.199219" xlink:href="#r"/>
  <use x="2.222656" y="563.199219" xlink:href="#d"/>
  <use x="4.742188" y="563.199219" xlink:href="#b"/>
  <use x="8.25" y="563.199219" xlink:href="#q"/>
  <use x="15.351562" y="563.199219" xlink:href="#c"/>
  <use x="17.792969" y="563.199219" xlink:href="#p"/>
  <use x="21.429688" y="563.199219" xlink:href="#a"/>
  <use x="26.671875" y="563.199219" xlink:href="#o"/>
  <use x="30.949219" y="563.199219" xlink:href="#b"/>
  <use x="34.457031" y="563.199219" xlink:href="#n"/>
  <use x="38.09375" y="563.199219" xlink:href="#e"/>
  <use x="43.507812" y="563.199219" xlink:href="#m"/>
  <use x="47.253906" y="563.199219" xlink:href="#d"/>
  <use x="49.773438" y="563.199219" xlink:href="#b"/>
  <use x="53.28125" y="563.199219" xlink:href="#l"/>
  <use x="55.03125" y="563.199219" xlink:href="#a"/>
  <use x="58.496094" y="563.199219" xlink:href="#k"/>
  <use x="61.523438" y="563.199219" xlink:href="#c"/>
 </g>
</svg>
